# xmcd CD database file
#
# Track frame offsets:
#	150
#	29067
#	96386
#	142255
#	228190
#
# Disc length: 4153 seconds
#
# Revision: 0
# Processed by: cddbd v1.5.1PL2 Copyright (c) Steve Scherf et al.
# Submitted via: CDex 1.51
#
DISCID=45103705
DTITLE=John Coltrane - Live at the Half Note
DYEAR=1900
DGENRE=Jazz
TTITLE0=Untitled Original
TTITLE1=Impressions
TTITLE2=I Want to Talk About You
TTITLE3=Brazilia
TTITLE4=Song of Praise
EXTD=
EXTT0=
EXTT1=
EXTT2=
EXTT3=
EXTT4=
PLAYORDER=
